<svg xmlns="http://www.w3.org/2000/svg" xmlns:xlink="http://www.w3.org/1999/xlink" width="500" zoomAndPan="magnify" viewBox="0 0 375 374.999991" height="500" preserveAspectRatio="xMidYMid meet" version="1.0"><defs><g/><clipPath id="0f97895d04"><rect x="0" width="96" y="0" height="104"/></clipPath><clipPath id="f8e4a6687e"><path d="M 0 0.878906 L 289 0.878906 L 289 130.238281 L 0 130.238281 Z M 0 0.878906 " clip-rule="nonzero"/></clipPath><clipPath id="025a7eb120"><rect x="0" width="289" y="0" height="131"/></clipPath><clipPath id="6829269d0c"><rect x="0" width="82" y="0" height="17"/></clipPath><clipPath id="14bc3fbb05"><rect x="0" width="375" y="0" height="131"/></clipPath></defs><rect x="-37.5" width="450" fill="#ffffff" y="-37.499999" height="449.999989" fill-opacity="1"/><rect x="-37.5" width="450" fill="#1d3557" y="-37.499999" height="449.999989" fill-opacity="1"/><g transform="matrix(1, 0, 0, 1, 0, 122)"><g clip-path="url(#14bc3fbb05)"><g transform="matrix(1, 0, 0, 1, 279, 6)"><g clip-path="url(#0f97895d04)"><g fill="#fafafa" fill-opacity="1"><g transform="translate(0.980728, 82.36757)"><g><path d="M 17.765625 -51.234375 L 17.765625 -36.875 L 36.203125 -36.875 L 36.203125 -27.234375 L 17.765625 -27.234375 L 17.765625 -9.625 L 39.1875 -9.625 L 39.1875 0 L 6.234375 0 L 6.234375 -60.859375 L 38.109375 -60.859375 L 38.109375 -51.234375 Z M 17.765625 -51.234375 "/></g></g></g><g fill="#fafafa" fill-opacity="1"><g transform="translate(43.702841, 82.36757)"><g><path d="M 48.28125 -32.21875 C 48.28125 -24.4375 47.609375 -18.21875 46.265625 -13.5625 C 44.929688 -8.914062 42.691406 -5.492188 39.546875 -3.296875 C 36.398438 -1.097656 32.078125 0 26.578125 0 L 6.234375 0 L 6.234375 -60.859375 L 25.703125 -60.859375 C 31.316406 -60.859375 35.773438 -59.75 39.078125 -57.53125 C 42.390625 -55.320312 44.75 -52.128906 46.15625 -47.953125 C 47.570312 -43.773438 48.28125 -38.53125 48.28125 -32.21875 Z M 17.765625 -9.59375 L 24.078125 -9.59375 C 27.847656 -9.59375 30.609375 -10.460938 32.359375 -12.203125 C 34.117188 -13.953125 35.210938 -16.21875 35.640625 -19 C 36.066406 -21.78125 36.28125 -25.601562 36.28125 -30.46875 C 36.28125 -36.394531 35.878906 -40.820312 35.078125 -43.75 C 34.273438 -46.6875 32.96875 -48.675781 31.15625 -49.71875 C 29.34375 -50.757812 26.707031 -51.28125 23.25 -51.28125 L 17.765625 -51.28125 Z M 17.765625 -9.59375 "/></g></g></g></g></g><g clip-path="url(#f8e4a6687e)"><g transform="matrix(1, 0, 0, 1, 0, 0)"><g clip-path="url(#025a7eb120)"><g fill="#fafafa" fill-opacity="1"><g transform="translate(0.0000045, 103.80947)"><g><path d="M 52.296875 -57.90625 C 52.296875 -49.4375 48.285156 -43.695312 40.265625 -40.6875 C 50.347656 -38.757812 55.390625 -32.351562 55.390625 -21.46875 C 55.390625 -17.3125 54.550781 -13.617188 52.875 -10.390625 C 51.195312 -7.171875 48.632812 -4.632812 45.1875 -2.78125 C 41.738281 -0.925781 37.472656 0 32.390625 0 L 7.875 0 L 7.875 -76.96875 L 31.03125 -76.96875 C 35.269531 -76.96875 38.976562 -76.238281 42.15625 -74.78125 C 45.34375 -73.332031 47.828125 -71.171875 49.609375 -68.296875 C 51.398438 -65.429688 52.296875 -61.96875 52.296875 -57.90625 Z M 22.46875 -45.84375 L 26.9375 -45.84375 C 30.570312 -45.90625 33.328125 -46.710938 35.203125 -48.265625 C 37.078125 -49.828125 38.015625 -52.1875 38.015625 -55.34375 C 38.015625 -58.53125 37.128906 -60.898438 35.359375 -62.453125 C 33.585938 -64.015625 30.816406 -64.796875 27.046875 -64.796875 L 22.46875 -64.796875 Z M 22.46875 -12.1875 L 28.203125 -12.1875 C 32.398438 -12.25 35.453125 -13.195312 37.359375 -15.03125 C 39.265625 -16.875 40.21875 -19.597656 40.21875 -23.203125 C 40.21875 -26.421875 39.304688 -28.96875 37.484375 -30.84375 C 35.671875 -32.71875 32.453125 -33.65625 27.828125 -33.65625 L 22.46875 -33.65625 Z M 22.46875 -12.1875 "/></g></g></g><g fill="#fafafa" fill-opacity="1"><g transform="translate(60.115316, 103.80947)"><g><path d="M 18.484375 -15.234375 L 14.859375 0 L -0.265625 0 L 21.796875 -76.96875 L 37.640625 -76.96875 L 59.484375 0 L 44.3125 0 L 40.75 -15.234375 Z M 29.71875 -62.6875 L 21.46875 -27.828125 L 37.859375 -27.828125 Z M 29.71875 -62.6875 "/></g></g></g><g fill="#fafafa" fill-opacity="1"><g transform="translate(112.565025, 103.80947)"><g><path d="M 34.234375 -64.953125 L 34.234375 0 L 19.640625 0 L 19.640625 -64.953125 L 1.890625 -64.953125 L 1.890625 -76.96875 L 51.875 -76.96875 L 51.875 -64.953125 Z M 34.234375 -64.953125 "/></g></g></g><g fill="#fafafa" fill-opacity="1"><g transform="translate(162.232182, 103.80947)"><g><path d="M 55.234375 -55.859375 L 40.53125 -52.65625 C 39.445312 -61.269531 36.265625 -65.578125 30.984375 -65.578125 C 27.722656 -65.578125 25.320312 -64.394531 23.78125 -62.03125 C 22.238281 -59.664062 21.265625 -56.695312 20.859375 -53.125 C 20.460938 -49.5625 20.265625 -44.910156 20.265625 -39.171875 C 20.265625 -33.390625 20.457031 -28.609375 20.84375 -24.828125 C 21.226562 -21.054688 22.207031 -17.875 23.78125 -15.28125 C 25.351562 -12.6875 27.785156 -11.390625 31.078125 -11.390625 C 36.992188 -11.390625 40.476562 -16.765625 41.53125 -27.515625 L 55.859375 -22.890625 C 53.617188 -6.753906 45.445312 1.3125 31.34375 1.3125 C 22.625 1.3125 16.066406 -1.90625 11.671875 -8.34375 C 7.285156 -14.789062 5.09375 -24.554688 5.09375 -37.640625 C 5.09375 -45.835938 5.75 -52.859375 7.0625 -58.703125 C 8.375 -64.546875 10.972656 -69.269531 14.859375 -72.875 C 18.742188 -76.476562 24.1875 -78.28125 31.1875 -78.28125 C 37.90625 -78.28125 43.21875 -76.507812 47.125 -72.96875 C 51.03125 -69.4375 53.734375 -63.734375 55.234375 -55.859375 Z M 55.234375 -55.859375 "/></g></g></g><g fill="#fafafa" fill-opacity="1"><g transform="translate(221.192439, 103.80947)"><g><path d="M 43.796875 0 L 43.796875 -34.078125 L 22.46875 -34.078125 L 22.46875 0 L 7.875 0 L 7.875 -76.96875 L 22.46875 -76.96875 L 22.46875 -46.515625 L 43.796875 -46.515625 L 43.796875 -76.96875 L 58.390625 -76.96875 L 58.390625 0 Z M 43.796875 0 "/></g></g></g></g></g></g><g transform="matrix(1, 0, 0, 1, 284, 92)"><g clip-path="url(#6829269d0c)"><g fill="#f26419" fill-opacity="1"><g transform="translate(0.914824, 13.358881)"><g><path d="M 6.90625 -7.046875 C 6.90625 -6.609375 6.828125 -6.207031 6.671875 -5.84375 C 6.515625 -5.476562 6.28125 -5.171875 5.96875 -4.921875 C 5.664062 -4.679688 5.296875 -4.523438 4.859375 -4.453125 C 5.109375 -4.359375 5.351562 -4.175781 5.59375 -3.90625 C 5.84375 -3.644531 6.066406 -3.296875 6.265625 -2.859375 L 7.625 0 L 6.25 0 L 4.984375 -2.703125 C 4.753906 -3.179688 4.546875 -3.535156 4.359375 -3.765625 C 4.171875 -3.992188 3.945312 -4.144531 3.6875 -4.21875 C 3.4375 -4.289062 3.078125 -4.328125 2.609375 -4.328125 L 2.25 -4.328125 L 2.25 0 L 1.0625 0 L 1.0625 -9.65625 L 3.75 -9.65625 C 4.789062 -9.65625 5.578125 -9.425781 6.109375 -8.96875 C 6.640625 -8.507812 6.90625 -7.867188 6.90625 -7.046875 Z M 5.6875 -7 C 5.6875 -7.601562 5.503906 -8.023438 5.140625 -8.265625 C 4.773438 -8.515625 4.257812 -8.640625 3.59375 -8.640625 L 2.25 -8.640625 L 2.25 -5.359375 L 3.546875 -5.359375 C 4.285156 -5.359375 4.828125 -5.488281 5.171875 -5.75 C 5.515625 -6.007812 5.6875 -6.425781 5.6875 -7 Z M 5.6875 -7 "/></g></g></g><g fill="#f26419" fill-opacity="1"><g transform="translate(8.663127, 13.358881)"><g><path d="M 2.25 -8.625 L 2.25 -5.5 L 5.578125 -5.5 L 5.578125 -4.453125 L 2.25 -4.453125 L 2.25 -1.046875 L 6.1875 -1.046875 L 6.1875 0 L 1.0625 0 L 1.0625 -9.65625 L 6 -9.65625 L 6 -8.625 Z M 2.25 -8.625 "/></g></g></g><g fill="#f26419" fill-opacity="1"><g transform="translate(15.363827, 13.358881)"><g><path d="M 6.921875 -7 L 5.828125 -6.734375 C 5.566406 -8.097656 4.945312 -8.78125 3.96875 -8.78125 C 3.226562 -8.78125 2.6875 -8.445312 2.34375 -7.78125 C 2.007812 -7.125 1.84375 -6.101562 1.84375 -4.71875 C 1.84375 -2.15625 2.550781 -0.875 3.96875 -0.875 C 5.082031 -0.875 5.734375 -1.695312 5.921875 -3.34375 L 7.046875 -3.0625 C 6.765625 -0.90625 5.742188 0.171875 3.984375 0.171875 C 2.910156 0.171875 2.082031 -0.234375 1.5 -1.046875 C 0.925781 -1.867188 0.640625 -3.148438 0.640625 -4.890625 C 0.640625 -6.492188 0.910156 -7.71875 1.453125 -8.5625 C 2.003906 -9.40625 2.84375 -9.828125 3.96875 -9.828125 C 5.65625 -9.828125 6.640625 -8.882812 6.921875 -7 Z M 6.921875 -7 "/></g></g></g><g fill="#f26419" fill-opacity="1"><g transform="translate(22.874937, 13.358881)"><g><path d="M 6.90625 -7.046875 C 6.90625 -6.609375 6.828125 -6.207031 6.671875 -5.84375 C 6.515625 -5.476562 6.28125 -5.171875 5.96875 -4.921875 C 5.664062 -4.679688 5.296875 -4.523438 4.859375 -4.453125 C 5.109375 -4.359375 5.351562 -4.175781 5.59375 -3.90625 C 5.84375 -3.644531 6.066406 -3.296875 6.265625 -2.859375 L 7.625 0 L 6.25 0 L 4.984375 -2.703125 C 4.753906 -3.179688 4.546875 -3.535156 4.359375 -3.765625 C 4.171875 -3.992188 3.945312 -4.144531 3.6875 -4.21875 C 3.4375 -4.289062 3.078125 -4.328125 2.609375 -4.328125 L 2.25 -4.328125 L 2.25 0 L 1.0625 0 L 1.0625 -9.65625 L 3.75 -9.65625 C 4.789062 -9.65625 5.578125 -9.425781 6.109375 -8.96875 C 6.640625 -8.507812 6.90625 -7.867188 6.90625 -7.046875 Z M 5.6875 -7 C 5.6875 -7.601562 5.503906 -8.023438 5.140625 -8.265625 C 4.773438 -8.515625 4.257812 -8.640625 3.59375 -8.640625 L 2.25 -8.640625 L 2.25 -5.359375 L 3.546875 -5.359375 C 4.285156 -5.359375 4.828125 -5.488281 5.171875 -5.75 C 5.515625 -6.007812 5.6875 -6.425781 5.6875 -7 Z M 5.6875 -7 "/></g></g></g><g fill="#f26419" fill-opacity="1"><g transform="translate(30.544173, 13.358881)"><g><path d="M 4.1875 0.171875 C 3.320312 0.171875 2.660156 0.0078125 2.203125 -0.3125 C 1.753906 -0.644531 1.453125 -1.085938 1.296875 -1.640625 C 1.148438 -2.191406 1.078125 -2.882812 1.078125 -3.71875 L 1.078125 -9.65625 L 2.265625 -9.65625 L 2.265625 -3.71875 C 2.265625 -3.125 2.304688 -2.628906 2.390625 -2.234375 C 2.472656 -1.835938 2.648438 -1.507812 2.921875 -1.25 C 3.191406 -1 3.59375 -0.875 4.125 -0.875 C 4.613281 -0.875 5 -0.972656 5.28125 -1.171875 C 5.5625 -1.367188 5.753906 -1.671875 5.859375 -2.078125 C 5.972656 -2.484375 6.03125 -3.03125 6.03125 -3.71875 L 6.03125 -9.65625 L 7.21875 -9.65625 L 7.21875 -3.734375 C 7.21875 -2.898438 7.132812 -2.203125 6.96875 -1.640625 C 6.8125 -1.078125 6.507812 -0.632812 6.0625 -0.3125 C 5.625 0.0078125 5 0.171875 4.1875 0.171875 Z M 4.1875 0.171875 "/></g></g></g><g fill="#f26419" fill-opacity="1"><g transform="translate(38.83934, 13.358881)"><g><path d="M 1.0625 0 L 1.0625 -9.65625 L 2.25 -9.65625 L 2.25 0 Z M 1.0625 0 "/></g></g></g><g fill="#f26419" fill-opacity="1"><g transform="translate(42.160042, 13.358881)"><g><path d="M 3.953125 -8.625 L 3.953125 0 L 2.765625 0 L 2.765625 -8.625 L 0.3125 -8.625 L 0.3125 -9.65625 L 6.453125 -9.65625 L 6.453125 -8.625 Z M 3.953125 -8.625 "/></g></g></g><g fill="#f26419" fill-opacity="1"><g transform="translate(48.913454, 13.358881)"><g><path d="M 8.3125 0 L 8.4375 -8.515625 L 5.828125 0 L 4.734375 0 L 2.140625 -8.46875 L 2.203125 0 L 1.0625 0 L 1.0625 -9.65625 L 2.828125 -9.65625 L 5.28125 -1.59375 L 7.734375 -9.65625 L 9.484375 -9.65625 L 9.484375 0 Z M 8.3125 0 "/></g></g></g><g fill="#f26419" fill-opacity="1"><g transform="translate(59.455364, 13.358881)"><g><path d="M 2.25 -8.625 L 2.25 -5.5 L 5.578125 -5.5 L 5.578125 -4.453125 L 2.25 -4.453125 L 2.25 -1.046875 L 6.1875 -1.046875 L 6.1875 0 L 1.0625 0 L 1.0625 -9.65625 L 6 -9.65625 L 6 -8.625 Z M 2.25 -8.625 "/></g></g></g><g fill="#f26419" fill-opacity="1"><g transform="translate(66.235128, 13.358881)"><g><path d="M 5.96875 0 L 2.03125 -8 L 2.203125 0 L 1.0625 0 L 1.0625 -9.65625 L 2.328125 -9.65625 L 6.25 -1.6875 L 6.265625 -1.6875 L 6.109375 -9.65625 L 7.25 -9.65625 L 7.25 0 Z M 5.96875 0 "/></g></g></g><g fill="#f26419" fill-opacity="1"><g transform="translate(74.543476, 13.358881)"><g><path d="M 3.953125 -8.625 L 3.953125 0 L 2.765625 0 L 2.765625 -8.625 L 0.3125 -8.625 L 0.3125 -9.65625 L 6.453125 -9.65625 L 6.453125 -8.625 Z M 3.953125 -8.625 "/></g></g></g></g></g></g></g></svg>