<svg xmlns="http://www.w3.org/2000/svg" xmlns:xlink="http://www.w3.org/1999/xlink" width="300" zoomAndPan="magnify" viewBox="0 0 224.87999 74.999997" height="100" preserveAspectRatio="xMidYMid meet" version="1.0"><defs><g/><clipPath id="27c0af0dac"><path d="M 2 0.0195312 L 224 0.0195312 L 224 74.980469 L 2 74.980469 Z M 2 0.0195312 " clip-rule="nonzero"/></clipPath><clipPath id="84b1b47852"><path d="M 164 3 L 221.082031 3 L 221.082031 64 L 164 64 Z M 164 3 " clip-rule="nonzero"/></clipPath><clipPath id="690150039e"><rect x="0" width="58" y="0" height="61"/></clipPath><clipPath id="e9cc78ca57"><path d="M 0.160156 0.0195312 L 170 0.0195312 L 170 74.980469 L 0.160156 74.980469 Z M 0.160156 0.0195312 " clip-rule="nonzero"/></clipPath><clipPath id="c997019b54"><rect x="0" width="170" y="0" height="75"/></clipPath><clipPath id="e471ae38b6"><rect x="0" width="49" y="0" height="10"/></clipPath><clipPath id="9604138d4d"><rect x="0" width="222" y="0" height="75"/></clipPath></defs><g clip-path="url(#27c0af0dac)"><g transform="matrix(1, 0, 0, 1, 2, -0.000000000000000847)"><g clip-path="url(#9604138d4d)"><g clip-path="url(#84b1b47852)"><g transform="matrix(1, 0, 0, 1, 164, 3)"><g clip-path="url(#690150039e)"><g fill="#fafafa" fill-opacity="1"><g transform="translate(0.726925, 47.923473)"><g><path d="M 10.4375 -30.078125 L 10.4375 -21.640625 L 21.25 -21.640625 L 21.25 -15.984375 L 10.4375 -15.984375 L 10.4375 -5.65625 L 23.015625 -5.65625 L 23.015625 0 L 3.65625 0 L 3.65625 -35.734375 L 22.375 -35.734375 L 22.375 -30.078125 Z M 10.4375 -30.078125 "/></g></g></g><g fill="#fafafa" fill-opacity="1"><g transform="translate(25.805145, 47.923473)"><g><path d="M 28.34375 -18.921875 C 28.34375 -14.347656 27.945312 -10.695312 27.15625 -7.96875 C 26.375 -5.238281 25.0625 -3.226562 23.21875 -1.9375 C 21.375 -0.644531 18.832031 0 15.59375 0 L 3.65625 0 L 3.65625 -35.734375 L 15.09375 -35.734375 C 18.382812 -35.734375 21 -35.082031 22.9375 -33.78125 C 24.882812 -32.476562 26.269531 -30.597656 27.09375 -28.140625 C 27.925781 -25.691406 28.34375 -22.617188 28.34375 -18.921875 Z M 10.4375 -5.625 L 14.140625 -5.625 C 16.347656 -5.625 17.96875 -6.132812 19 -7.15625 C 20.03125 -8.1875 20.671875 -9.519531 20.921875 -11.15625 C 21.171875 -12.789062 21.296875 -15.035156 21.296875 -17.890625 C 21.296875 -21.367188 21.0625 -23.96875 20.59375 -25.6875 C 20.125 -27.414062 19.359375 -28.582031 18.296875 -29.1875 C 17.234375 -29.800781 15.6875 -30.109375 13.65625 -30.109375 L 10.4375 -30.109375 Z M 10.4375 -5.625 "/></g></g></g></g></g></g><g clip-path="url(#e9cc78ca57)"><g transform="matrix(1, 0, 0, 1, 0.000000000000000222, -0.000000000000000847)"><g clip-path="url(#c997019b54)"><g fill="#fafafa" fill-opacity="1"><g transform="translate(0.376006, 59.987989)"><g><path d="M 30.703125 -34 C 30.703125 -29.019531 28.347656 -25.648438 23.640625 -23.890625 C 29.554688 -22.753906 32.515625 -18.992188 32.515625 -12.609375 C 32.515625 -10.160156 32.019531 -7.988281 31.03125 -6.09375 C 30.050781 -4.207031 28.546875 -2.71875 26.515625 -1.625 C 24.492188 -0.539062 21.992188 0 19.015625 0 L 4.625 0 L 4.625 -45.1875 L 18.21875 -45.1875 C 20.707031 -45.1875 22.882812 -44.757812 24.75 -43.90625 C 26.625 -43.050781 28.082031 -41.78125 29.125 -40.09375 C 30.175781 -38.414062 30.703125 -36.382812 30.703125 -34 Z M 13.1875 -26.90625 L 15.8125 -26.90625 C 17.945312 -26.945312 19.5625 -27.425781 20.65625 -28.34375 C 21.757812 -29.257812 22.3125 -30.640625 22.3125 -32.484375 C 22.3125 -34.359375 21.789062 -35.75 20.75 -36.65625 C 19.71875 -37.570312 18.09375 -38.03125 15.875 -38.03125 L 13.1875 -38.03125 Z M 13.1875 -7.15625 L 16.546875 -7.15625 C 19.015625 -7.195312 20.804688 -7.753906 21.921875 -8.828125 C 23.046875 -9.910156 23.609375 -11.507812 23.609375 -13.625 C 23.609375 -15.507812 23.070312 -17 22 -18.09375 C 20.9375 -19.195312 19.050781 -19.75 16.34375 -19.75 L 13.1875 -19.75 Z M 13.1875 -7.15625 "/></g></g></g><g fill="#fafafa" fill-opacity="1"><g transform="translate(35.664172, 59.987989)"><g><path d="M 10.84375 -8.9375 L 8.71875 0 L -0.15625 0 L 12.796875 -45.1875 L 22.09375 -45.1875 L 34.921875 0 L 26.015625 0 L 23.921875 -8.9375 Z M 17.453125 -36.796875 L 12.609375 -16.34375 L 22.21875 -16.34375 Z M 17.453125 -36.796875 "/></g></g></g><g fill="#fafafa" fill-opacity="1"><g transform="translate(66.452568, 59.987989)"><g><path d="M 20.09375 -38.125 L 20.09375 0 L 11.53125 0 L 11.53125 -38.125 L 1.109375 -38.125 L 1.109375 -45.1875 L 30.453125 -45.1875 L 30.453125 -38.125 Z M 20.09375 -38.125 "/></g></g></g><g fill="#fafafa" fill-opacity="1"><g transform="translate(95.607585, 59.987989)"><g><path d="M 32.421875 -32.796875 L 23.796875 -30.921875 C 23.160156 -35.972656 21.289062 -38.5 18.1875 -38.5 C 16.269531 -38.5 14.859375 -37.804688 13.953125 -36.421875 C 13.054688 -35.035156 12.488281 -33.289062 12.25 -31.1875 C 12.007812 -29.09375 11.890625 -26.363281 11.890625 -23 C 11.890625 -19.601562 12.003906 -16.796875 12.234375 -14.578125 C 12.460938 -12.359375 13.035156 -10.488281 13.953125 -8.96875 C 14.878906 -7.445312 16.3125 -6.6875 18.25 -6.6875 C 21.71875 -6.6875 23.757812 -9.84375 24.375 -16.15625 L 32.796875 -13.4375 C 31.484375 -3.96875 26.6875 0.765625 18.40625 0.765625 C 13.28125 0.765625 9.425781 -1.125 6.84375 -4.90625 C 4.269531 -8.6875 2.984375 -14.414062 2.984375 -22.09375 C 2.984375 -26.90625 3.367188 -31.023438 4.140625 -34.453125 C 4.910156 -37.890625 6.4375 -40.664062 8.71875 -42.78125 C 11 -44.894531 14.195312 -45.953125 18.3125 -45.953125 C 22.257812 -45.953125 25.375 -44.914062 27.65625 -42.84375 C 29.945312 -40.769531 31.535156 -37.421875 32.421875 -32.796875 Z M 32.421875 -32.796875 "/></g></g></g><g fill="#fafafa" fill-opacity="1"><g transform="translate(130.217725, 59.987989)"><g><path d="M 25.703125 0 L 25.703125 -20 L 13.1875 -20 L 13.1875 0 L 4.625 0 L 4.625 -45.1875 L 13.1875 -45.1875 L 13.1875 -27.3125 L 25.703125 -27.3125 L 25.703125 -45.1875 L 34.28125 -45.1875 L 34.28125 0 Z M 25.703125 0 "/></g></g></g></g></g></g><g transform="matrix(1, 0, 0, 1, 167, 53)"><g clip-path="url(#e471ae38b6)"><g fill="#f26419" fill-opacity="1"><g transform="translate(0.623279, 7.897509)"><g><path d="M 4.046875 -4.140625 C 4.046875 -3.878906 4 -3.640625 3.90625 -3.421875 C 3.820312 -3.210938 3.6875 -3.035156 3.5 -2.890625 C 3.320312 -2.753906 3.101562 -2.660156 2.84375 -2.609375 C 3 -2.554688 3.144531 -2.453125 3.28125 -2.296875 C 3.425781 -2.140625 3.554688 -1.929688 3.671875 -1.671875 L 4.46875 0 L 3.65625 0 L 2.921875 -1.578125 C 2.785156 -1.867188 2.660156 -2.078125 2.546875 -2.203125 C 2.441406 -2.335938 2.316406 -2.425781 2.171875 -2.46875 C 2.023438 -2.519531 1.8125 -2.546875 1.53125 -2.546875 L 1.328125 -2.546875 L 1.328125 0 L 0.625 0 L 0.625 -5.671875 L 2.203125 -5.671875 C 2.816406 -5.671875 3.273438 -5.535156 3.578125 -5.265625 C 3.890625 -4.992188 4.046875 -4.617188 4.046875 -4.140625 Z M 3.34375 -4.109375 C 3.34375 -4.460938 3.234375 -4.710938 3.015625 -4.859375 C 2.804688 -5.003906 2.503906 -5.078125 2.109375 -5.078125 L 1.328125 -5.078125 L 1.328125 -3.140625 L 2.078125 -3.140625 C 2.515625 -3.140625 2.832031 -3.210938 3.03125 -3.359375 C 3.238281 -3.515625 3.34375 -3.765625 3.34375 -4.109375 Z M 3.34375 -4.109375 "/></g></g></g><g fill="#f26419" fill-opacity="1"><g transform="translate(5.171595, 7.897509)"><g><path d="M 1.328125 -5.0625 L 1.328125 -3.21875 L 3.265625 -3.21875 L 3.265625 -2.609375 L 1.328125 -2.609375 L 1.328125 -0.609375 L 3.625 -0.609375 L 3.625 0 L 0.625 0 L 0.625 -5.671875 L 3.515625 -5.671875 L 3.515625 -5.0625 Z M 1.328125 -5.0625 "/></g></g></g><g fill="#f26419" fill-opacity="1"><g transform="translate(9.104959, 7.897509)"><g><path d="M 4.0625 -4.109375 L 3.421875 -3.953125 C 3.265625 -4.753906 2.898438 -5.15625 2.328125 -5.15625 C 1.890625 -5.15625 1.570312 -4.957031 1.375 -4.5625 C 1.175781 -4.175781 1.078125 -3.578125 1.078125 -2.765625 C 1.078125 -1.265625 1.492188 -0.515625 2.328125 -0.515625 C 2.984375 -0.515625 3.363281 -1 3.46875 -1.96875 L 4.140625 -1.796875 C 3.972656 -0.535156 3.375 0.09375 2.34375 0.09375 C 1.707031 0.09375 1.21875 -0.140625 0.875 -0.609375 C 0.539062 -1.085938 0.375 -1.835938 0.375 -2.859375 C 0.375 -3.804688 0.535156 -4.523438 0.859375 -5.015625 C 1.179688 -5.515625 1.671875 -5.765625 2.328125 -5.765625 C 3.316406 -5.765625 3.894531 -5.210938 4.0625 -4.109375 Z M 4.0625 -4.109375 "/></g></g></g><g fill="#f26419" fill-opacity="1"><g transform="translate(13.51404, 7.897509)"><g><path d="M 4.046875 -4.140625 C 4.046875 -3.878906 4 -3.640625 3.90625 -3.421875 C 3.820312 -3.210938 3.6875 -3.035156 3.5 -2.890625 C 3.320312 -2.753906 3.101562 -2.660156 2.84375 -2.609375 C 3 -2.554688 3.144531 -2.453125 3.28125 -2.296875 C 3.425781 -2.140625 3.554688 -1.929688 3.671875 -1.671875 L 4.46875 0 L 3.65625 0 L 2.921875 -1.578125 C 2.785156 -1.867188 2.660156 -2.078125 2.546875 -2.203125 C 2.441406 -2.335938 2.316406 -2.425781 2.171875 -2.46875 C 2.023438 -2.519531 1.8125 -2.546875 1.53125 -2.546875 L 1.328125 -2.546875 L 1.328125 0 L 0.625 0 L 0.625 -5.671875 L 2.203125 -5.671875 C 2.816406 -5.671875 3.273438 -5.535156 3.578125 -5.265625 C 3.890625 -4.992188 4.046875 -4.617188 4.046875 -4.140625 Z M 3.34375 -4.109375 C 3.34375 -4.460938 3.234375 -4.710938 3.015625 -4.859375 C 2.804688 -5.003906 2.503906 -5.078125 2.109375 -5.078125 L 1.328125 -5.078125 L 1.328125 -3.140625 L 2.078125 -3.140625 C 2.515625 -3.140625 2.832031 -3.210938 3.03125 -3.359375 C 3.238281 -3.515625 3.34375 -3.765625 3.34375 -4.109375 Z M 3.34375 -4.109375 "/></g></g></g><g fill="#f26419" fill-opacity="1"><g transform="translate(18.015943, 7.897509)"><g><path d="M 2.453125 0.09375 C 1.953125 0.09375 1.566406 0 1.296875 -0.1875 C 1.023438 -0.382812 0.84375 -0.644531 0.75 -0.96875 C 0.664062 -1.289062 0.625 -1.691406 0.625 -2.171875 L 0.625 -5.671875 L 1.328125 -5.671875 L 1.328125 -2.1875 C 1.328125 -1.832031 1.347656 -1.535156 1.390625 -1.296875 C 1.441406 -1.066406 1.546875 -0.878906 1.703125 -0.734375 C 1.867188 -0.585938 2.109375 -0.515625 2.421875 -0.515625 C 2.703125 -0.515625 2.925781 -0.570312 3.09375 -0.6875 C 3.257812 -0.800781 3.375 -0.976562 3.4375 -1.21875 C 3.507812 -1.457031 3.546875 -1.78125 3.546875 -2.1875 L 3.546875 -5.671875 L 4.234375 -5.671875 L 4.234375 -2.1875 C 4.234375 -1.695312 4.1875 -1.285156 4.09375 -0.953125 C 4 -0.628906 3.820312 -0.375 3.5625 -0.1875 C 3.300781 0 2.929688 0.09375 2.453125 0.09375 Z M 2.453125 0.09375 "/></g></g></g><g fill="#f26419" fill-opacity="1"><g transform="translate(22.885272, 7.897509)"><g><path d="M 0.625 0 L 0.625 -5.671875 L 1.328125 -5.671875 L 1.328125 0 Z M 0.625 0 "/></g></g></g><g fill="#f26419" fill-opacity="1"><g transform="translate(24.83455, 7.897509)"><g><path d="M 2.328125 -5.0625 L 2.328125 0 L 1.625 0 L 1.625 -5.0625 L 0.1875 -5.0625 L 0.1875 -5.671875 L 3.78125 -5.671875 L 3.78125 -5.0625 Z M 2.328125 -5.0625 "/></g></g></g><g fill="#f26419" fill-opacity="1"><g transform="translate(28.798857, 7.897509)"><g><path d="M 4.875 0 L 4.953125 -5 L 3.421875 0 L 2.78125 0 L 1.25 -4.96875 L 1.296875 0 L 0.625 0 L 0.625 -5.671875 L 1.65625 -5.671875 L 3.109375 -0.9375 L 4.546875 -5.671875 L 5.5625 -5.671875 L 5.5625 0 Z M 4.875 0 "/></g></g></g><g fill="#f26419" fill-opacity="1"><g transform="translate(34.987042, 7.897509)"><g><path d="M 1.328125 -5.0625 L 1.328125 -3.21875 L 3.265625 -3.21875 L 3.265625 -2.609375 L 1.328125 -2.609375 L 1.328125 -0.609375 L 3.625 -0.609375 L 3.625 0 L 0.625 0 L 0.625 -5.671875 L 3.515625 -5.671875 L 3.515625 -5.0625 Z M 1.328125 -5.0625 "/></g></g></g><g fill="#f26419" fill-opacity="1"><g transform="translate(38.966817, 7.897509)"><g><path d="M 3.5 0 L 1.1875 -4.703125 L 1.296875 0 L 0.625 0 L 0.625 -5.671875 L 1.359375 -5.671875 L 3.671875 -0.984375 L 3.578125 -5.671875 L 4.25 -5.671875 L 4.25 0 Z M 3.5 0 "/></g></g></g><g fill="#f26419" fill-opacity="1"><g transform="translate(43.843884, 7.897509)"><g><path d="M 2.328125 -5.0625 L 2.328125 0 L 1.625 0 L 1.625 -5.0625 L 0.1875 -5.0625 L 0.1875 -5.671875 L 3.78125 -5.671875 L 3.78125 -5.0625 Z M 2.328125 -5.0625 "/></g></g></g></g></g></g></g></g></svg>