<svg xmlns="http://www.w3.org/2000/svg" xmlns:xlink="http://www.w3.org/1999/xlink" width="500" zoomAndPan="magnify" viewBox="0 0 375 374.999991" height="500" preserveAspectRatio="xMidYMid meet" version="1.0"><defs><clipPath id="395373c067"><path d="M 125 37.5 L 337.5 37.5 L 337.5 337.5 L 125 337.5 Z M 125 37.5 " clip-rule="nonzero"/></clipPath><clipPath id="908325687a"><path d="M 37.5 37.5 L 180 37.5 L 180 337.5 L 37.5 337.5 Z M 37.5 37.5 " clip-rule="nonzero"/></clipPath></defs><rect x="-37.5" width="450" fill="#ffffff" y="-37.499999" height="449.999989" fill-opacity="1"/><rect x="-37.5" width="450" fill="#fafafa" y="-37.499999" height="449.999989" fill-opacity="1"/><g clip-path="url(#395373c067)"><path fill="#f15a29" d="M 185.203125 37.5 L 185.433594 168.332031 L 185.550781 247.867188 L 217.570312 247.867188 L 217.570312 195.417969 L 249.816406 247.867188 L 287.347656 247.867188 L 254.984375 199.4375 C 266.804688 194.042969 275.871094 181.417969 275.871094 166.382812 C 275.871094 144.691406 257.164062 127.132812 231.109375 127.132812 L 217.339844 127.132812 L 217.339844 61.714844 L 313.167969 61.714844 L 313.167969 313.285156 L 149.855469 313.285156 C 136.429688 313.285156 125.640625 324.1875 125.640625 337.5 L 337.5 337.5 L 337.5 37.5 Z M 230.539062 155.9375 C 237.308594 155.9375 243.621094 160.53125 243.621094 168.105469 C 243.621094 175.5625 237.421875 180.269531 230.539062 180.269531 L 217.453125 180.15625 L 217.453125 155.9375 Z M 230.539062 155.9375 " fill-opacity="1" fill-rule="nonzero"/></g><g clip-path="url(#908325687a)"><path fill="#4b4b4b" d="M 179.351562 211.027344 C 179.351562 192.777344 164.890625 179.925781 152.035156 179.925781 C 156.972656 179.925781 165.234375 170.972656 165.234375 158.578125 C 165.234375 141.9375 149.167969 127.246094 127.363281 127.246094 L 87.652344 127.246094 L 87.652344 313.398438 L 61.714844 313.398438 L 61.714844 61.714844 L 153.875 61.714844 C 167.300781 61.714844 178.089844 50.8125 178.089844 37.5 L 37.5 37.5 L 37.5 337.5 L 118.523438 337.5 L 118.523438 247.867188 L 139.183594 247.867188 C 163.398438 247.867188 179.351562 230.078125 179.351562 211.027344 Z M 118.523438 155.019531 L 126.445312 155.019531 C 133.332031 155.019531 138.378906 158.464844 138.378906 164.316406 C 138.378906 170.515625 133.101562 173.957031 126.214844 173.957031 L 118.523438 173.957031 Z M 118.523438 218.714844 L 118.523438 195.761719 L 134.59375 195.878906 C 143.660156 195.878906 148.707031 200.125 148.707031 207.238281 C 148.707031 215.160156 141.707031 218.714844 134.363281 218.714844 Z M 118.523438 218.714844 " fill-opacity="1" fill-rule="nonzero"/></g></svg>